<?xml version="1.0" standalone="no"?>
<!DOCTYPE svg PUBLIC "-//W3C//DTD SVG 20010904//EN"
 "http://www.w3.org/TR/2001/REC-SVG-20010904/DTD/svg10.dtd">
<svg version="1.0" xmlns="http://www.w3.org/2000/svg"
 width="324.000000pt" height="518.000000pt" viewBox="0 0 324.000000 518.000000"
 preserveAspectRatio="xMidYMid meet">

<g transform="translate(0.000000,518.000000) scale(0.100000,-0.100000)"
fill="#000000" stroke="none">
<path d="M1507 5169 c-76 -18 -131 -61 -162 -126 -8 -17 -22 -69 -30 -116 -8
-46 -29 -117 -46 -158 -56 -134 -99 -259 -99 -289 0 -43 17 -72 61 -105 34
-25 38 -31 24 -41 -8 -6 -43 -17 -78 -24 -107 -21 -162 -48 -236 -117 -56 -51
-84 -69 -140 -88 -90 -30 -185 -81 -222 -118 -37 -36 -49 -83 -49 -187 l0 -84
72 70 c61 59 129 112 258 203 12 8 20 9 20 3 0 -6 -42 -42 -92 -81 -51 -38
-124 -101 -163 -140 -38 -39 -75 -71 -82 -71 -18 0 -16 -20 7 -57 15 -25 27
-33 47 -33 57 0 159 22 191 41 18 10 35 19 38 19 13 0 -22 -231 -56 -367 -44
-173 -111 -469 -150 -663 -104 -521 -477 -1734 -596 -1937 -13 -23 -24 -46
-24 -51 0 -5 19 -12 43 -16 23 -4 71 -16 106 -26 35 -11 83 -20 108 -20 53 0
168 28 286 70 47 17 90 30 96 30 7 0 11 -22 11 -53 0 -48 3 -55 25 -65 36 -16
102 -15 108 2 19 50 44 520 53 1011 3 193 9 409 13 480 l7 130 8 -160 c13
-228 -10 -1321 -30 -1473 -4 -34 -9 -42 -26 -42 -16 0 -18 -3 -9 -14 7 -8 23
-17 37 -20 21 -6 23 -10 14 -21 -21 -25 -106 -75 -156 -91 -27 -9 -57 -24 -66
-32 -22 -18 -24 -75 -4 -91 8 -7 54 -15 103 -18 103 -7 222 14 311 53 50 22
58 23 68 9 14 -18 102 -20 153 -2 31 11 36 19 53 77 14 48 18 82 14 132 -6 66
-5 68 19 74 53 13 55 8 55 -166 0 -109 3 -160 11 -160 6 0 24 9 40 20 49 35
113 59 187 70 88 12 117 3 125 -39 4 -20 16 -35 38 -46 30 -16 30 -17 12 -37
-10 -12 -36 -38 -58 -57 -91 -82 -96 -89 -93 -123 l3 -33 160 -3 c93 -2 175 1
197 8 20 5 59 30 86 55 27 25 56 45 64 45 8 0 35 13 61 30 33 21 52 41 63 69
15 37 21 42 85 62 39 12 90 35 114 50 38 24 46 35 51 69 6 34 13 45 48 65 69
40 169 73 293 96 105 20 122 26 150 54 30 30 32 35 23 66 -17 58 -13 65 43 87
28 11 63 24 77 27 31 9 60 34 60 52 0 37 -133 352 -213 503 -221 420 -328 683
-401 990 -74 309 -232 1223 -241 1390 -20 419 -69 645 -158 738 -43 45 -113
88 -164 101 -39 11 -43 15 -57 64 -8 29 -33 77 -54 107 -58 81 -91 151 -113
243 -29 116 -52 152 -115 182 -29 14 -66 25 -83 25 l-30 0 -4 -87 -3 -88 -2
88 -2 87 -27 -1 c-16 -1 -45 -5 -66 -10z m43 -99 c0 -79 -2 -90 -17 -89 -11 0
-13 3 -5 6 8 3 12 31 12 89 0 46 2 84 5 84 3 0 5 -40 5 -90z m184 44 c9 -8 21
-24 26 -35 20 -36 -17 -21 -39 16 -21 36 -14 47 13 19z m-340 -35 c-8 -17 -13
-41 -10 -54 4 -15 -2 -29 -19 -45 -21 -20 -25 -21 -25 -7 0 9 4 17 9 17 4 0
11 15 14 34 5 31 33 86 43 86 3 0 -3 -14 -12 -31z m89 -86 c-7 -2 -19 -2 -25
0 -7 3 -2 5 12 5 14 0 19 -2 13 -5z m234 -19 c-3 -3 -12 -4 -19 -1 -8 3 -5 6
6 6 11 1 17 -2 13 -5z m-52 -14 c-11 -5 -27 -9 -35 -9 -9 0 -8 4 5 9 11 5 27
9 35 9 9 0 8 -4 -5 -9z m-295 -31 c-12 -16 -25 -28 -28 -25 -5 6 36 56 45 56
3 0 -5 -14 -17 -31z m90 27 c0 -2 -11 -6 -25 -8 -13 -3 -22 -1 -19 3 5 9 44
13 44 5z m352 -14 c17 -17 -4 -15 -28 2 -17 13 -17 14 -1 12 9 -1 23 -8 29
-14z m-214 1 c-10 -2 -28 -2 -40 0 -13 2 -5 4 17 4 22 1 32 -1 23 -4z m-8 -40
c2 -2 0 -7 -6 -11 -6 -4 -10 -17 -9 -29 1 -13 -4 -23 -12 -23 -7 0 -13 9 -13
19 0 11 -11 28 -25 39 l-25 20 42 -5 c24 -3 45 -8 48 -10z m-171 -76 c1 -5 -3
-5 -9 -2 -5 3 -10 16 -9 28 0 21 1 21 9 2 5 -11 9 -24 9 -28z m241 28 c10 -13
9 -15 -9 -15 -12 0 -21 6 -21 15 0 8 4 15 9 15 5 0 14 -7 21 -15z m-78 -42
c-16 -3 -32 -25 -59 -81 -20 -42 -39 -80 -41 -84 -2 -5 6 -8 17 -8 13 0 21 7
22 18 1 16 2 16 6 0 8 -30 23 -20 24 15 l1 32 7 -29 c8 -39 24 -35 32 6 l6 33
2 -31 c1 -39 11 -48 27 -26 7 9 14 12 14 6 0 -7 10 -15 23 -19 19 -6 17 -8
-18 -15 -68 -14 -188 -15 -193 -1 -2 6 5 27 17 46 23 40 21 42 -21 18 -29 -18
-29 -18 -48 7 -23 31 -20 36 27 44 57 11 103 29 103 41 0 19 23 35 50 34 23
-2 23 -2 2 -6z m-96 -28 c-19 -14 -56 -21 -56 -10 0 4 53 22 70 24 3 0 -4 -6
-14 -14z m249 5 c-3 -5 -13 -10 -21 -10 -8 0 -12 5 -9 10 3 6 13 10 21 10 8 0
12 -4 9 -10z m37 -45 c-2 -11 -10 -26 -17 -34 -11 -12 -19 -10 -48 8 -19 12
-41 28 -48 37 -11 13 -5 15 52 12 58 -3 64 -5 61 -23z m-48 -117 c-10 -16 -25
-8 -35 19 -6 16 -21 42 -35 60 -42 55 -26 47 25 -13 27 -32 47 -62 45 -66z
m-93 -83 c-17 -20 -31 -33 -31 -30 0 10 54 74 58 70 3 -2 -9 -20 -27 -40z m86
-121 c-3 -3 -12 -4 -19 -1 -8 3 -5 6 6 6 11 1 17 -2 13 -5z m-117 -39 c0 -3
-20 -31 -45 -62 -24 -31 -43 -59 -41 -60 2 -2 39 14 82 37 44 22 93 42 109 45
21 4 15 -1 -19 -15 -53 -23 -118 -69 -153 -110 -26 -31 -89 -67 -99 -57 -4 4
10 26 32 48 21 22 32 40 24 39 -31 -5 -50 0 -50 13 0 18 79 107 104 117 24 10
56 13 56 5z m278 -37 c2 -11 -24 -31 -85 -64 -125 -67 -208 -118 -372 -228
l-144 -96 -79 0 c-58 0 -79 3 -76 12 6 16 42 26 101 27 42 1 59 9 130 59 45
32 105 71 132 87 28 16 77 49 110 74 64 49 253 152 270 147 6 -1 11 -10 13
-18z m-488 -23 c-7 -8 -20 -15 -29 -15 -13 1 -13 3 3 15 26 19 42 19 26 0z
m-80 -25 c0 -5 9 -10 20 -10 28 0 110 -42 110 -56 0 -19 -21 -28 -58 -25 -23
2 -38 -3 -47 -16 -9 -10 -14 -13 -15 -5 0 23 -28 12 -38 -15 l-10 -28 -1 32
c-1 39 -16 51 -30 24 -8 -14 -8 -20 0 -23 14 -5 3 -48 -12 -48 -5 0 -9 11 -9
24 0 13 -7 29 -15 36 -13 11 -19 9 -36 -8 -11 -12 -27 -22 -35 -22 -8 0 -25
-10 -38 -22 -32 -32 -131 -82 -144 -74 -13 8 -32 -53 -32 -101 0 -18 9 -56 20
-85 11 -28 18 -53 16 -55 -2 -2 -14 11 -27 29 -20 28 -24 44 -22 103 1 39 10
99 20 134 l18 65 96 27 c113 33 226 85 240 110 10 20 29 26 29 9z m590 -24 c0
-5 -105 -71 -195 -123 -38 -23 -119 -76 -178 -120 -193 -140 -199 -143 -292
-142 -44 0 -89 4 -100 9 -13 6 8 9 64 9 81 1 87 3 161 45 43 25 115 72 161
105 46 33 124 81 174 107 49 26 115 63 145 81 57 34 60 36 60 29z m8 -88 c-8
-12 -59 -46 -112 -75 -126 -69 -230 -139 -292 -198 -85 -80 -109 -88 -249 -82
-66 2 -131 9 -145 15 -17 6 18 8 116 4 89 -3 148 -1 160 6 11 6 70 48 131 94
62 46 147 103 190 127 43 24 107 63 143 87 36 24 67 44 69 44 2 0 -3 -10 -11
-22z m-508 -41 c0 -2 -31 -25 -68 -50 -46 -32 -79 -47 -100 -47 -18 0 -32 4
-32 9 0 14 65 51 91 52 13 0 42 9 64 19 46 22 45 21 45 17z m-638 -91 c-72
-39 -123 -77 -170 -125 -38 -39 -45 -38 -27 6 15 35 63 69 170 119 91 43 107
43 27 0z m123 15 c-3 -6 -49 -40 -103 -77 -53 -37 -125 -95 -160 -128 -65 -62
-84 -68 -59 -19 34 65 174 178 267 214 52 21 63 23 55 10z m990 -11 c-4 -6
-30 -22 -58 -36 -62 -31 -56 -22 10 17 55 32 56 33 48 19z m-300 -185 c-64
-59 -129 -99 -148 -91 -7 2 -5 5 4 5 10 1 57 33 105 71 49 39 91 70 94 70 3 0
-22 -25 -55 -55z m-705 8 c-17 -31 -228 -238 -235 -231 -6 5 230 248 241 248
3 0 0 -8 -6 -17z m199 -89 c6 -23 22 -58 36 -78 22 -32 22 -35 5 -26 -40 21
-90 132 -75 167 7 17 8 16 15 -2 4 -11 13 -38 19 -61z m-195 -26 c-35 -41 -44
-49 -44 -42 0 9 51 64 58 64 3 0 -3 -10 -14 -22z m529 5 c-7 -2 -19 -2 -25 0
-7 3 -2 5 12 5 14 0 19 -2 13 -5z m-86 -10 c-20 -2 -52 -2 -70 0 -17 2 0 4 38
4 39 0 53 -2 32 -4z m-23 -48 c-1 -11 -3 -31 -5 -45 -3 -21 0 -25 20 -25 13 0
26 6 29 13 2 6 -3 12 -10 12 -9 0 -14 12 -15 34 -1 27 3 34 17 33 13 -1 19
-12 23 -42 4 -23 4 -51 0 -63 -6 -24 -7 -24 -168 -41 -55 -6 -110 -14 -122
-17 -25 -7 -30 9 -25 68 3 25 9 38 18 38 20 0 30 -30 13 -40 -7 -5 -10 -13 -5
-17 4 -4 17 3 28 16 16 21 23 23 38 13 27 -17 66 5 87 51 16 32 22 37 48 35
23 -2 30 -8 29 -23z m141 -80 l-15 -40 6 45 c3 25 8 54 12 65 6 18 7 18 10 -5
1 -14 -4 -43 -13 -65z m304 -25 c-43 -81 -49 -70 -7 14 18 37 34 62 36 57 2
-6 -11 -38 -29 -71z m-738 -20 c-5 -63 -7 -70 -14 -42 -5 27 10 130 18 120 1
-2 -1 -37 -4 -78z m808 43 c-34 -58 -43 -63 -18 -10 13 26 27 47 32 47 5 0 -1
-17 -14 -37z m-314 -3 c-4 -12 -9 -19 -12 -17 -3 3 -2 15 2 27 4 12 9 19 12
17 3 -3 2 -15 -2 -27z m38 -20 c-3 -11 -10 -23 -16 -27 -7 -4 -8 0 -4 11 4 10
7 22 7 27 0 5 4 9 9 9 5 0 7 -9 4 -20z m-573 -67 c0 -24 -5 -33 -16 -33 -13 0
-15 7 -10 31 3 17 6 39 6 48 0 14 2 14 10 1 5 -8 10 -30 10 -47z m254 -43 c41
0 44 -2 50 -31 3 -17 6 -53 6 -78 l0 -47 -97 -11 c-54 -6 -105 -13 -113 -14
-12 -3 -16 11 -18 78 -3 78 -2 82 20 85 14 2 25 12 29 28 7 25 7 25 8 2 1 -19
6 -23 29 -20 20 2 28 10 31 28 5 24 5 24 9 3 3 -20 10 -23 46 -23z m381 13
c35 -4 49 -11 53 -25 3 -12 8 -15 16 -9 10 9 91 0 102 -11 2 -3 -21 -5 -53 -4
l-58 1 4 -49 3 -49 -107 8 c-92 6 -109 5 -125 -10 -17 -15 -19 -15 -23 2 -15
51 -18 124 -7 138 14 16 109 20 195 8z m-571 -43 c-6 -5 -24 21 -24 34 0 6 6
1 14 -10 8 -10 12 -21 10 -24z m263 -82 c-2 -18 -4 -6 -4 27 0 33 2 48 4 33 2
-15 2 -42 0 -60z m-367 -52 c0 -80 -14 -123 -34 -107 -26 22 -28 76 -5 125 12
25 25 46 30 46 5 0 9 -29 9 -64z m987 -83 c-2 -16 -4 -5 -4 22 0 28 2 40 4 28
2 -13 2 -35 0 -50z m-207 22 c0 -5 -5 -3 -10 5 -5 8 -10 20 -10 25 0 6 5 3 10
-5 5 -8 10 -19 10 -25z m-540 -27 c0 -31 -3 -39 -11 -31 -7 7 -8 24 -4 42 9
43 15 39 15 -11z m354 -197 c25 -205 35 -294 56 -521 44 -462 44 -474 31 -535
-22 -99 -23 -97 -56 420 -21 328 -42 582 -60 730 -8 66 -14 125 -14 130 3 27
29 -112 43 -224z m-387 172 c-3 -10 -5 -2 -5 17 0 19 2 27 5 18 2 -10 2 -26 0
-35z m-76 -71 c-5 -46 -12 -86 -16 -90 -9 -8 0 135 10 161 13 32 14 13 6 -71z
m825 -217 c-35 -327 -60 -437 -230 -1008 -72 -242 -111 -404 -135 -557 -24
-151 -61 -637 -62 -809 0 -64 -4 -125 -9 -136 -14 -30 -1 531 16 745 18 220
50 401 105 604 47 170 120 406 172 551 72 202 108 381 143 710 10 94 20 161
22 150 1 -11 -8 -123 -22 -250z m-946 220 c-24 -63 -60 -306 -80 -535 -11
-135 -25 -279 -30 -320 -5 -41 -14 -185 -20 -320 -6 -135 -22 -366 -35 -515
-13 -148 -26 -322 -29 -385 -18 -336 -30 -481 -42 -491 -22 -18 -36 0 -30 40
6 35 27 311 46 606 6 83 17 220 25 305 8 85 24 272 35 415 62 785 73 895 106
1035 27 117 54 204 60 197 3 -2 0 -17 -6 -32z m220 16 c0 -5 -7 -25 -15 -45
-12 -28 -14 -59 -10 -134 3 -53 8 -110 11 -127 9 -57 -14 -10 -30 62 -20 88
-22 239 -3 246 20 9 47 8 47 -2z m439 -92 c42 -205 108 -764 97 -823 -4 -21
-9 -36 -11 -34 -3 2 -23 177 -45 389 -40 375 -51 467 -66 539 -4 19 -4 32 -1
29 4 -3 15 -48 26 -100z m-602 54 c-3 -10 -5 -4 -5 12 0 17 2 24 5 18 2 -7 2
-21 0 -30z m212 -83 c6 -52 14 -111 16 -130 5 -29 4 -31 -4 -13 -13 28 -37
253 -27 242 2 -2 9 -47 15 -99z m500 -40 c11 -63 31 -177 45 -252 26 -137 33
-238 18 -238 -5 0 -16 62 -26 138 -10 75 -26 191 -36 257 -20 131 -32 236 -25
220 2 -5 13 -62 24 -125z m-705 -550 c4 -47 14 -149 22 -227 8 -78 13 -168 13
-200 -1 -59 -30 214 -48 452 -6 72 -10 243 -9 380 l1 250 7 -285 c4 -157 10
-323 14 -370z m352 402 c-19 -38 -38 -86 -43 -108 l-8 -39 -5 44 -5 44 -25
-38 c-34 -51 -58 -59 -110 -33 -39 20 -100 92 -87 104 3 3 19 -2 36 -10 49
-26 111 -21 162 13 24 16 57 43 73 60 46 48 49 37 12 -37z m59 -210 c24 -72
52 -147 63 -169 11 -21 23 -49 27 -63 7 -24 6 -24 -8 -5 -46 64 -147 284 -147
321 0 26 10 57 17 50 3 -2 24 -63 48 -134z m-328 41 c-3 -10 -5 -4 -5 12 0 17
2 24 5 18 2 -7 2 -21 0 -30z m924 -219 c-27 -275 -57 -544 -77 -674 -64 -432
-92 -865 -78 -1216 10 -245 9 -284 -6 -284 -31 0 -53 289 -47 610 6 277 25
451 101 880 29 163 108 784 117 915 2 19 2 19 6 -1 2 -11 -5 -114 -16 -230z
m-875 194 c-34 -166 -19 -628 21 -628 5 0 7 111 5 247 -3 273 4 368 28 368 17
0 17 26 3 -375 -9 -243 -9 -267 7 -285 47 -55 156 -235 142 -235 -4 0 -19 24
-35 53 -15 29 -63 94 -107 144 -70 80 -80 96 -80 130 0 21 -7 81 -15 133 -17
112 -19 267 -5 377 13 93 16 103 31 103 8 0 9 -11 5 -32z m289 -184 c70 -149
54 -148 -19 1 -41 83 -68 159 -52 144 4 -4 36 -69 71 -145z m-109 -11 c7 -45
-12 -379 -26 -468 -5 -30 -8 68 -7 249 0 245 3 295 13 281 7 -10 16 -38 20
-62z m-150 -501 c10 -7 48 -262 46 -314 -1 -16 3 -28 9 -28 19 0 21 -31 4 -50
-17 -19 -17 -21 0 -40 15 -16 16 -22 5 -35 -11 -13 -11 -20 1 -41 12 -23 11
-30 -4 -57 -18 -30 -18 -31 7 -51 28 -23 27 10 11 -361 -6 -136 -4 -166 9
-197 11 -26 23 -38 37 -38 11 0 17 -4 14 -10 -3 -5 -15 -10 -26 -10 -29 0 -23
-28 11 -45 33 -17 38 -32 15 -41 -18 -7 -20 -33 -2 -35 6 -1 -4 -4 -23 -8 -39
-7 -42 -15 -43 -121 l-1 -56 -37 71 c-36 67 -42 92 -17 67 7 -7 20 -12 31 -12
14 0 17 5 11 23 -3 12 -13 30 -21 39 -18 21 -9 38 20 38 12 0 28 4 36 9 16 10
6 31 -15 31 -8 0 -14 6 -14 13 2 110 -14 583 -19 587 -4 3 -8 36 -9 73 -1 38
-7 78 -14 90 -7 14 -11 66 -10 142 1 103 -18 300 -34 358 -6 18 4 22 22 9z
m-119 -94 c-2 -18 -4 -6 -4 27 0 33 2 48 4 33 2 -15 2 -42 0 -60z m1353 -338
c17 -271 71 -765 105 -944 8 -43 15 -118 15 -166 0 -73 -3 -89 -17 -94 -9 -4
-19 -2 -23 3 -3 6 -11 99 -18 208 -7 109 -19 270 -27 358 -8 88 -21 237 -30
330 -17 193 -31 503 -22 495 4 -3 11 -89 17 -190z m-1026 21 c-4 -28 -9 -50
-11 -47 -3 3 -2 28 2 56 4 28 9 49 12 47 2 -3 1 -28 -3 -56z m10 -206 c4 -27
4 -34 -3 -20 -13 31 -24 93 -12 75 5 -8 12 -33 15 -55z m13 -178 c-2 -23 -3
-1 -3 48 0 50 1 68 3 42 2 -26 2 -67 0 -90z m-458 -207 c1 -102 -2 -214 -6
-250 l-8 -65 -5 75 c-7 108 2 514 11 465 4 -22 8 -123 8 -225z m2050 -143 c33
-114 48 -184 43 -193 -7 -13 -10 -13 -21 -1 -11 13 -122 477 -120 502 1 16 42
-113 98 -308z m-1858 -2 c10 -214 8 -411 -7 -449 -3 -9 -13 -16 -21 -16 -13 0
-14 10 -7 68 5 37 9 211 9 386 0 354 8 358 26 11z m246 243 c-3 -8 -6 -5 -6 6
-1 11 2 17 5 13 3 -3 4 -12 1 -19z m-12 -58 c-9 -41 -17 -33 -9 9 4 17 9 30
11 27 3 -2 2 -19 -2 -36z m-1129 -173 c-45 -127 -67 -171 -88 -175 -29 -5 -22
23 26 106 24 42 55 98 67 124 13 26 24 46 26 44 2 -2 -12 -46 -31 -99z m770
-396 c23 -10 45 -24 48 -30 10 -16 4 -14 -61 19 -63 32 -53 41 13 11z m304
-26 c-7 -20 -14 -34 -17 -31 -3 2 1 20 8 40 17 46 25 38 9 -9z m-564 -92 c36
-5 42 -8 29 -16 -23 -13 -100 0 -117 20 -12 15 -10 16 15 9 15 -3 48 -9 73
-13z m1164 -250 c12 -11 -31 -23 -81 -23 -75 0 -119 9 -119 26 0 11 19 12 98
7 53 -3 99 -8 102 -10z"/>
<path d="M897 3330 c4 -14 0 -20 -11 -20 -9 0 -16 -6 -16 -13 0 -21 12 -28 27
-16 15 13 18 69 4 69 -5 0 -7 -9 -4 -20z"/>
</g>
</svg>
