<svg width="24" height="24" viewBox="0 0 24 24" fill="none" xmlns="http://www.w3.org/2000/svg">
<g filter="url(#filter0_d_3_19)">
<path d="M11.7438 0.0165698C11.2013 0.0827765 10.9475 0.133811 10.5825 0.248293C9.74875 0.508982 8.93875 0.960016 8.31125 1.51312C8.12125 1.68139 7.82125 2.00553 7.695 2.17932C7.44 2.53243 7.27 2.90208 7.2075 3.24277C7.16625 3.46208 7.16875 3.54622 7.22375 4.04139C7.27875 4.52415 7.3925 5.54759 7.46875 6.22345C7.4925 6.44276 7.5325 6.79724 7.55625 7.01242C7.58 7.22759 7.6 7.40966 7.6 7.41793C7.6 7.42483 7.4675 7.64414 7.305 7.90483C7.1425 8.16552 7.00625 8.38896 7.00375 8.4C6.99875 8.41931 8.5225 10.7572 8.58875 10.8345C8.60875 10.8565 8.70625 10.88 9.10875 10.9614C9.39 11.0179 9.61 11.069 9.61875 11.0786C9.6275 11.0883 9.66625 11.2855 9.705 11.5172C9.74375 11.7476 9.7825 11.9448 9.79125 11.9531C9.79875 11.9627 10.11 12.1586 10.4813 12.3876L11.1563 12.8069H12H12.8438L13.5188 12.3876C13.89 12.1586 14.2013 11.9627 14.2088 11.9531C14.2175 11.9448 14.2563 11.7476 14.295 11.5172C14.3338 11.2855 14.3725 11.0883 14.3813 11.0786C14.39 11.069 14.61 11.0179 14.8913 10.9614C15.2938 10.88 15.3913 10.8565 15.4113 10.8345C15.4775 10.7572 17.0013 8.41931 16.9963 8.4C16.9938 8.38896 16.8575 8.16552 16.695 7.90483C16.5325 7.64414 16.4 7.42483 16.4 7.41793C16.4 7.40966 16.42 7.22897 16.4438 7.01655C16.4675 6.80276 16.5063 6.4469 16.5313 6.22759C16.6138 5.48828 16.725 4.4938 16.7775 4.02208C16.8275 3.5738 16.8288 3.54898 16.815 3.40829C16.7488 2.76139 16.3525 2.09932 15.6688 1.49657C14.8325 0.758637 13.62 0.19588 12.5688 0.0565697C12.1088 -0.00411983 11.9663 -0.0110164 11.7438 0.0165698ZM9.8125 6.83173C10.6163 7.06207 11.2013 7.40552 11.3388 7.72966C11.3775 7.82207 11.3788 7.82621 11.3713 7.97655C11.3625 8.1669 11.3288 8.31172 11.2563 8.47586C11.0763 8.87586 10.7 9.19586 10.1863 9.3862C9.86375 9.50482 9.5625 9.56138 9.24375 9.56413L9.0425 9.56551L8.9475 9.5131C8.82125 9.44551 8.74375 9.35034 8.6625 9.16551C8.5375 8.88276 8.47875 8.54207 8.455 7.96552C8.43125 7.37793 8.555 7.05104 8.86625 6.88276C9.03875 6.79035 9.19125 6.75862 9.43125 6.76552C9.575 6.76966 9.61875 6.77655 9.8125 6.83173ZM14.7938 6.77242C14.9363 6.79586 15.025 6.82483 15.1375 6.88552C15.4438 7.04966 15.5688 7.38069 15.545 7.96552C15.5225 8.53793 15.4625 8.88414 15.3375 9.16551C15.2563 9.35034 15.1788 9.44551 15.0525 9.5131L14.9575 9.56551L14.7563 9.56413C14.2188 9.56 13.6475 9.37931 13.25 9.08827C13.0975 8.97655 12.8875 8.74758 12.8075 8.60414C12.6875 8.39034 12.625 8.16 12.625 7.93103C12.625 7.82897 12.63 7.80276 12.6625 7.72552C12.7938 7.41931 13.3675 7.07311 14.1063 6.85517C14.4275 6.76 14.5888 6.74069 14.7938 6.77242ZM12.4275 9.98068C12.6525 10.4193 12.8363 10.789 12.8363 10.8014C12.8375 10.8248 12.515 11.1021 12.4725 11.1145C12.4588 11.1186 12.3663 11.0662 12.225 10.9724L12 10.8248L11.775 10.9724C11.6338 11.0662 11.5413 11.1186 11.5275 11.1145C11.49 11.1034 11.1625 10.8262 11.1625 10.8055C11.1625 10.7903 11.9063 9.31448 11.9713 9.20276C11.9813 9.18482 11.9963 9.17241 12.0038 9.17655C12.0125 9.17931 12.2025 9.54069 12.4275 9.98068Z" fill="#921919"/>
<path d="M5.05625 6.71864C4.605 6.78347 4.22625 7.01243 4.14375 7.26898C4.10375 7.39312 4.13 7.64002 4.19875 7.79864C4.21875 7.84554 4.2775 7.94761 4.33 8.02761C4.4825 8.26071 4.52625 8.41795 4.5275 8.73105C4.5275 8.99588 4.485 9.14071 4.36 9.30623C4.15125 9.58209 4.1175 9.63588 4.075 9.77381C4.0475 9.85933 4 10.1352 4 10.2042V10.2455L4.71 10.2524C5.40625 10.2607 5.555 10.2676 5.90625 10.3117C6.41625 10.3738 7.00625 10.5476 7.7125 10.84C7.84 10.8924 7.945 10.9338 7.9475 10.9311C7.95375 10.9242 7.965 10.9421 7.1975 9.77933L6.50125 8.72416L6.3925 8.66347C5.795 8.32829 5.55375 7.91726 5.37 6.92416L5.33125 6.71036L5.2375 6.70898C5.18625 6.70761 5.105 6.71174 5.05625 6.71864Z" fill="#921919"/>
<path d="M18.67 6.71864C18.6662 6.72967 18.6487 6.81795 18.6312 6.91726C18.5012 7.63588 18.3375 8.0414 18.06 8.32416C17.9525 8.4345 17.7612 8.57795 17.6087 8.66209L17.4987 8.72416L16.8025 9.77933C16.035 10.9421 16.0462 10.9242 16.0525 10.9311C16.055 10.9338 16.16 10.8924 16.2875 10.84C16.9937 10.5476 17.5837 10.3738 18.0937 10.3117C18.445 10.2676 18.5937 10.2607 19.2912 10.2524L20 10.2455V10.2124C20 10.1614 19.9737 9.99036 19.9487 9.86898C19.9087 9.68002 19.8675 9.60691 19.6437 9.31036C19.515 9.14071 19.4725 8.99726 19.4725 8.73105C19.4737 8.41795 19.5175 8.26071 19.67 8.0276C19.7225 7.9476 19.7812 7.84554 19.8012 7.79864C19.87 7.64002 19.8962 7.39312 19.8562 7.26761C19.765 6.98347 19.31 6.73933 18.8125 6.70761C18.7012 6.70071 18.675 6.70347 18.67 6.71864Z" fill="#921919"/>
<path d="M9.80625 12.4373C9.81625 12.4745 9.8525 12.618 9.8875 12.7586C9.9225 12.8993 9.95375 13.0235 9.9575 13.0373C9.9625 13.0566 10.2887 13.338 10.3062 13.338C10.31 13.338 10.3125 13.1904 10.3125 13.0097V12.6828L10.0637 12.5269C9.9275 12.4428 9.81 12.3724 9.8025 12.3724C9.79375 12.3724 9.79375 12.3931 9.80625 12.4373Z" fill="#921919"/>
<path d="M13.935 12.5283L13.6875 12.6828V13.0097C13.6875 13.1904 13.69 13.338 13.6938 13.338C13.7113 13.338 14.0375 13.0566 14.0425 13.0373C14.0463 13.0235 14.0775 12.8993 14.1125 12.7586C14.1475 12.618 14.1838 12.4745 14.1938 12.4373C14.2063 12.389 14.2075 12.3724 14.1963 12.3724C14.1875 12.3724 14.07 12.4428 13.935 12.5283Z" fill="#921919"/>
<path d="M8.96875 12.5641C8.32625 12.9283 7.59375 13.1835 6.9125 13.2814C6.73375 13.3076 6.6725 13.3131 6.44625 13.3228C6.18124 13.3366 6.10624 13.3572 5.97124 13.4579C5.86874 13.5338 5.78624 13.6414 5.72874 13.7724C5.68624 13.8731 5.64999 14.0248 5.64999 14.1131C5.64999 14.1586 5.65374 14.1655 5.68499 14.1724C5.70374 14.1779 5.78874 14.2055 5.87374 14.2359C6.25249 14.3669 6.53625 14.5917 6.71875 14.9021C6.80625 15.0497 6.85 15.1476 6.94 15.3986C7.09125 15.8193 7.15125 15.9062 7.34 15.9793C7.4125 16.0069 7.47125 16.0055 7.59125 15.971C7.84125 15.9007 7.94375 15.8055 8.2875 15.3172C8.51625 14.9931 8.63875 14.84 8.8075 14.6635C9.08375 14.3752 9.47 14.0993 9.84125 13.9228C9.90125 13.8952 9.95 13.8662 9.95 13.8593C9.95 13.8538 9.84 13.7572 9.70625 13.6469L9.4625 13.4455L9.44 13.36C9.4275 13.3145 9.37 13.0883 9.31125 12.8593C9.25375 12.629 9.20125 12.4414 9.19375 12.4428C9.1875 12.4428 9.08625 12.4979 8.96875 12.5641Z" fill="#921919"/>
<path d="M14.6888 12.8593C14.63 13.0883 14.5725 13.3145 14.56 13.36L14.5375 13.4455L14.2938 13.6469C14.16 13.7572 14.05 13.8538 14.05 13.8593C14.05 13.8662 14.0988 13.8952 14.16 13.9228C14.53 14.0993 14.9125 14.3724 15.1925 14.6635C15.3613 14.8386 15.4825 14.9931 15.7125 15.3186C16.055 15.8041 16.1588 15.9007 16.4088 15.971C16.5288 16.0055 16.5875 16.0069 16.66 15.9793C16.8488 15.9062 16.9013 15.8304 17.0538 15.4138C17.15 15.1504 17.1938 15.051 17.2813 14.9021C17.4638 14.5917 17.7475 14.3669 18.1263 14.2359C18.2113 14.2055 18.2963 14.1779 18.3163 14.1724C18.345 14.1655 18.35 14.1586 18.35 14.1172C18.35 14.0262 18.3113 13.8676 18.2625 13.7572C18.1813 13.5738 18.0338 13.4276 17.8625 13.3641C17.7975 13.3407 17.7363 13.3324 17.5538 13.3228C17.3275 13.3131 17.2663 13.3076 17.0875 13.2814C16.4063 13.1835 15.685 12.9324 15.0275 12.5628C14.9088 12.4966 14.8075 12.4414 14.8025 12.4414C14.7975 12.4414 14.7463 12.629 14.6888 12.8593Z" fill="#921919"/>
<path d="M10.525 13.149V13.4703L10.785 13.6234C10.9275 13.7076 11.0475 13.7738 11.0537 13.7697C11.065 13.7614 11.065 13.1434 11.0525 13.1228C11.045 13.109 10.5475 12.8276 10.5312 12.8276C10.5275 12.8276 10.525 12.9724 10.525 13.149Z" fill="#921919"/>
<path d="M13.2063 12.9683C13.0688 13.0441 12.9525 13.1145 12.9475 13.1228C12.935 13.1434 12.935 13.7614 12.9475 13.7697C12.9525 13.7738 13.0725 13.7076 13.2163 13.6234L13.475 13.4703V13.149C13.475 12.9724 13.4713 12.8276 13.4663 12.829C13.46 12.829 13.3438 12.891 13.2063 12.9683Z" fill="#921919"/>
<path d="M11.2687 13.1628C11.265 13.1724 11.2637 13.3255 11.265 13.5035L11.2687 13.8276H11.5812H11.8937V13.4897V13.1517L11.5837 13.1476C11.34 13.1448 11.2725 13.1476 11.2687 13.1628Z" fill="#921919"/>
<path d="M12.1063 13.1628C12.1025 13.1724 12.1013 13.3255 12.1025 13.5035L12.1063 13.8276H12.4188H12.7313V13.4897V13.1517L12.4213 13.1476C12.1775 13.1448 12.11 13.1476 12.1063 13.1628Z" fill="#921919"/>
</g>
<defs>
<filter id="filter0_d_3_19" x="0" y="0" width="24" height="24" filterUnits="userSpaceOnUse" color-interpolation-filters="sRGB">
<feFlood flood-opacity="0" result="BackgroundImageFix"/>
<feColorMatrix in="SourceAlpha" type="matrix" values="0 0 0 0 0 0 0 0 0 0 0 0 0 0 0 0 0 0 127 0" result="hardAlpha"/>
<feOffset dy="4"/>
<feGaussianBlur stdDeviation="2"/>
<feComposite in2="hardAlpha" operator="out"/>
<feColorMatrix type="matrix" values="0 0 0 0 0 0 0 0 0 0 0 0 0 0 0 0 0 0 0.25 0"/>
<feBlend mode="normal" in2="BackgroundImageFix" result="effect1_dropShadow_3_19"/>
<feBlend mode="normal" in="SourceGraphic" in2="effect1_dropShadow_3_19" result="shape"/>
</filter>
</defs>
</svg>
